<?xml version="1.0" standalone="no"?>
<!DOCTYPE svg PUBLIC "-//W3C//DTD SVG 20010904//EN"
 "http://www.w3.org/TR/2001/REC-SVG-20010904/DTD/svg10.dtd">
<svg version="1.0" xmlns="http://www.w3.org/2000/svg"
 width="530.000000pt" height="247.000000pt" viewBox="0 0 530.000000 247.000000"
 preserveAspectRatio="xMidYMid meet">

<g transform="translate(0.000000,247.000000) scale(0.100000,-0.100000)"
fill="#087990" stroke="none">
<path d="M0 1235 l0 -1235 2650 0 2650 0 0 1235 0 1235 -2650 0 -2650 0 0
-1235z m2210 932 c13 -7 35 -28 47 -46 l23 -34 0 -876 c0 -861 0 -877 -20
-909 -39 -64 -2 -62 -950 -62 -948 0 -910 -2 -950 62 -20 33 -20 44 -18 920
l3 886 25 27 c14 15 34 31 45 35 11 5 414 9 895 9 681 1 880 -2 900 -12z m462
-54 c3 -65 4 -68 28 -68 20 0 33 13 65 67 l40 67 48 1 c36 0 46 -3 41 -12 -5
-7 -27 -43 -51 -80 -24 -36 -43 -70 -43 -73 0 -7 49 -91 88 -152 14 -23 14
-23 -36 -23 l-50 0 -41 66 c-33 53 -45 65 -64 62 -20 -3 -22 -9 -25 -65 l-3
-63 -44 0 -45 0 0 170 0 170 45 0 44 0 3 -67z m352 -88 c16 -42 32 -78 36 -80
4 -3 22 31 40 75 l32 80 40 0 c47 0 49 13 -29 -174 -57 -138 -87 -180 -133
-189 -25 -6 -100 8 -100 18 0 2 5 15 11 29 10 20 17 24 43 19 21 -3 36 0 44
10 11 12 3 38 -43 147 -30 72 -55 133 -55 136 0 2 19 4 43 4 l42 0 29 -75z
m362 12 c16 -31 34 -61 40 -67 6 -6 24 17 49 60 40 69 40 70 83 70 l42 0 0
-130 0 -130 -40 0 -39 0 -3 68 -3 67 -35 -57 c-20 -34 -42 -58 -51 -58 -10 0
-31 24 -51 58 l-33 57 -3 -67 -3 -68 -39 0 -40 0 0 131 0 130 48 -3 c46 -3 48
-4 78 -61z m-714 -509 l3 -72 58 72 c54 67 60 72 97 72 l40 0 0 -135 0 -135
-45 0 -44 0 -3 72 -3 72 -58 -72 c-54 -67 -60 -72 -97 -72 l-40 0 0 135 0 135
45 0 44 0 3 -72z m186 -355 c3 -35 10 -32 -93 -53 -62 -14 -95 -34 -95 -60 0
-22 10 -26 27 -9 16 16 97 16 127 -1 56 -29 72 -108 36 -168 -36 -59 -130 -80
-200 -44 -98 48 -108 249 -17 314 30 21 165 59 197 55 9 -1 16 -15 18 -34z
m314 -100 c86 -43 74 -201 -18 -239 -36 -15 -99 -11 -110 7 -13 21 -24 -6 -24
-57 l0 -54 -40 0 -40 0 0 180 0 180 40 0 c22 0 40 -4 40 -9 0 -5 17 -3 38 5
39 13 69 10 114 -13z m265 17 c14 0 37 -13 54 -29 28 -29 29 -32 29 -130 l0
-101 -40 0 c-29 0 -40 4 -40 15 0 13 -6 11 -29 -6 -74 -54 -190 33 -137 103
18 24 59 38 112 38 29 0 44 4 44 13 0 34 -51 48 -103 28 -21 -8 -26 -6 -36 16
-7 15 -8 30 -3 35 11 11 93 27 110 22 8 -2 25 -4 39 -4z m393 -35 c0 -35 0
-35 -45 -35 l-45 0 0 -95 0 -95 -45 0 -45 0 0 95 0 95 -45 0 c-45 0 -45 0 -45
35 l0 35 135 0 135 0 0 -35z m130 -5 c0 -38 1 -40 33 -40 52 -1 108 -17 122
-37 18 -22 19 -82 2 -104 -23 -31 -56 -39 -151 -39 l-96 0 0 130 0 130 45 0
45 0 0 -40z m450 -89 c0 -128 0 -129 -24 -133 -33 -7 -44 2 -48 37 -5 45 -39
46 -73 1 -24 -32 -33 -36 -72 -36 l-45 0 26 34 c31 41 32 47 6 68 -25 22 -35
64 -24 97 15 42 66 61 167 61 l87 0 0 -129z m-1660 -561 c0 -62 3 -82 15 -86
9 -4 15 -19 15 -35 0 -34 -17 -39 -22 -6 -3 20 -9 22 -80 25 -78 3 -78 3 -78
-23 0 -14 -4 -25 -10 -25 -17 0 -11 58 7 69 14 7 18 26 21 85 l4 76 64 0 64 0
0 -80z m180 10 c44 -44 12 -113 -52 -113 -36 0 -68 32 -68 69 0 33 34 64 70
64 17 0 39 -9 50 -20z m164 14 c9 -3 16 -10 16 -15 0 -6 -10 -5 -21 2 -49 26
-100 -41 -63 -82 19 -21 54 -25 71 -8 7 7 13 7 17 1 10 -16 -51 -33 -80 -22
-27 11 -47 51 -37 77 16 46 54 64 97 47z m151 -3 c-29 -6 -30 -9 -34 -66 l-5
-60 -5 60 c-6 57 -8 60 -36 66 -19 4 -5 7 40 7 45 0 59 -3 40 -7z m155 -6 c7
-9 15 -39 18 -67 4 -45 3 -50 -12 -45 -9 4 -28 2 -42 -3 -31 -12 -64 3 -64 28
0 27 20 42 56 42 40 0 50 13 28 35 -13 12 -27 15 -53 10 -26 -4 -32 -3 -21 4
23 16 76 13 90 -4z m174 9 c18 -7 22 -39 6 -49 -7 -4 -5 -14 5 -27 21 -32 2
-48 -56 -48 l-49 0 0 65 0 65 39 0 c22 0 46 -3 55 -6z m96 -37 c0 -24 3 -47 6
-50 4 -4 25 16 47 43 22 28 44 50 49 50 4 0 7 -30 6 -67 -1 -46 -3 -55 -5 -28
-3 22 -8 44 -12 48 -5 5 -25 -12 -46 -37 -53 -65 -65 -61 -65 19 0 37 4 65 10
65 6 0 10 -19 10 -43z m228 -5 c13 -23 27 -42 32 -42 4 0 20 20 34 45 15 25
31 45 36 45 6 0 10 -29 10 -65 0 -75 -17 -89 -22 -17 l-3 47 -25 -42 c-14 -24
-27 -43 -30 -43 -3 0 -16 19 -30 43 l-25 42 -3 -47 c-5 -72 -22 -58 -22 18 0
77 12 81 48 16z m363 32 c9 -11 10 -20 2 -33 -8 -13 -7 -22 3 -36 21 -28 0
-45 -57 -45 l-49 0 0 65 0 65 44 0 c27 0 48 -6 57 -16z m243 10 c9 -3 16 -10
16 -15 0 -5 -12 -4 -26 1 -33 13 -62 -2 -70 -37 -10 -40 7 -58 55 -57 28 0 38
-3 32 -9 -19 -19 -73 -12 -93 12 -48 60 12 133 86 105z m111 -4 c13 20 63 11
84 -16 26 -33 26 -55 3 -84 -18 -22 -54 -29 -84 -16 -15 7 -18 3 -18 -28 0
-20 -4 -36 -10 -36 -6 0 -10 39 -10 96 0 82 2 95 14 85 10 -8 16 -9 21 -1z
m265 -10 c44 -44 12 -113 -52 -113 -36 0 -68 32 -68 69 0 33 34 64 70 64 17 0
39 -9 50 -20z m112 -38 c9 -2 26 10 39 27 29 39 47 41 20 2 -12 -16 -21 -32
-21 -36 0 -4 9 -20 21 -36 11 -16 16 -29 10 -29 -5 0 -19 14 -31 31 -27 37
-53 34 -61 -6 -4 -19 -7 -5 -7 40 0 45 3 59 7 40 3 -16 14 -31 23 -33z"/>
<path d="M1037 1693 c-4 -3 -7 -19 -7 -35 l0 -28 -97 0 -98 -1 -157 -177 -158
-177 3 -185 2 -185 51 -3 51 -3 6 -41 c11 -81 78 -138 162 -138 84 0 151 57
162 138 l6 42 237 0 237 0 6 -42 c19 -141 205 -189 292 -74 15 19 29 53 32 76
l6 40 88 0 89 0 0 110 0 110 46 0 c38 0 45 3 42 18 -2 12 -15 18 -46 20 l-43
3 3 62 3 62 73 3 c99 4 94 26 -6 30 l-72 3 0 64 0 64 43 3 c29 2 42 8 42 18 0
10 -13 16 -42 18 l-43 3 0 105 0 104 -453 0 c-250 0 -457 -3 -460 -7z m883
-113 l0 -89 -117 -3 c-97 -2 -118 -6 -118 -18 0 -12 21 -16 118 -18 l117 -3 0
-64 0 -65 -75 0 c-59 0 -75 -3 -75 -15 0 -11 17 -15 73 -17 l72 -3 3 -62 3
-63 -105 0 c-113 0 -136 -4 -136 -26 0 -11 24 -14 120 -14 l121 0 -3 -92 -3
-93 -76 -3 -77 -3 -20 36 c-61 102 -212 101 -277 -2 l-20 -32 -187 -1 -188 0
0 370 0 370 425 0 425 0 0 -90z m-890 -140 l0 -160 -226 0 c-214 0 -226 1
-213 18 8 9 72 81 142 160 l129 142 84 0 84 0 0 -160z m0 -350 l0 -160 -37 0
c-32 0 -41 6 -61 35 -32 51 -77 75 -137 75 -60 0 -105 -24 -137 -75 -20 -29
-29 -35 -60 -35 l-38 0 0 160 0 160 235 0 235 0 0 -160z m-143 -124 c28 -30
33 -43 33 -85 0 -127 -149 -176 -229 -75 -32 40 -29 113 6 154 34 41 58 51
113 46 35 -3 51 -11 77 -40z m774 29 c64 -34 87 -120 49 -182 -37 -61 -108
-79 -167 -43 -71 43 -88 129 -36 190 43 51 98 63 154 35z"/>
<path d="M2712 1000 c-12 -5 -27 -21 -33 -34 -27 -58 60 -109 99 -58 20 26 15
69 -10 86 -25 18 -25 18 -56 6z"/>
<path d="M3055 1018 c-27 -15 -35 -28 -35 -60 0 -56 68 -89 103 -50 23 25 22
85 -1 105 -22 20 -39 21 -67 5z"/>
<path d="M3363 933 c-20 -7 -16 -50 5 -55 37 -10 83 26 66 53 -5 9 -50 11 -71
2z"/>
<path d="M3967 953 c-13 -12 -7 -64 8 -69 45 -18 90 30 58 61 -15 15 -54 20
-66 8z"/>
<path d="M4247 1013 c-27 -27 13 -67 61 -61 22 2 28 9 30 36 3 32 3 32 -41 32
-24 0 -47 -3 -50 -7z"/>
<path d="M2637 403 c-3 -32 -7 -65 -8 -73 -3 -12 7 -15 46 -15 l50 0 3 73 3
72 -44 0 -44 0 -6 -57z"/>
<path d="M2851 401 c-39 -39 -22 -91 29 -91 33 0 50 17 50 50 0 51 -45 75 -79
41z"/>
<path d="M3324 345 c-8 -21 4 -35 30 -35 27 0 51 24 41 40 -9 15 -65 12 -71
-5z"/>
<path d="M3500 395 c0 -24 3 -26 33 -23 24 2 32 8 32 23 0 15 -8 21 -32 23
-30 3 -33 1 -33 -23z"/>
<path d="M3500 335 c0 -22 4 -25 34 -25 19 0 38 5 41 10 11 18 -15 40 -46 40
-24 0 -29 -4 -29 -25z"/>
<path d="M4174 405 c-9 -23 9 -37 42 -33 21 2 29 8 29 23 0 26 -62 35 -71 10z"/>
<path d="M4177 353 c-4 -3 -7 -15 -7 -25 0 -14 8 -18 39 -18 41 0 59 18 38 39
-12 12 -60 15 -70 4z"/>
<path d="M4617 402 c-33 -37 -16 -92 28 -92 50 0 73 67 33 94 -29 21 -41 20
-61 -2z"/>
<path d="M4802 404 c-24 -17 -30 -62 -10 -82 7 -7 24 -12 38 -12 33 0 50 17
50 51 0 24 -30 59 -50 59 -3 0 -16 -7 -28 -16z"/>
</g>
</svg>
