<?xml version="1.0" standalone="no"?>
<!DOCTYPE svg PUBLIC "-//W3C//DTD SVG 20010904//EN"
 "http://www.w3.org/TR/2001/REC-SVG-20010904/DTD/svg10.dtd">
<svg version="1.0"
    xmlns="http://www.w3.org/2000/svg" width="533.000000pt" height="400.000000pt" viewBox="0 0 533.000000 400.000000" preserveAspectRatio="xMidYMid meet">

    <g transform="translate(0.000000,400.000000) scale(0.100000,-0.100000)" fill="#000000" stroke="none">
        <path d="M880 3363 c-19 -2 -68 -10 -109 -18 -40 -8 -111 -15 -157 -15 -84 0
-87 -1 -252 -74 -92 -41 -186 -82 -210 -91 -24 -10 -41 -19 -39 -22 3 -2 90
27 193 65 104 38 192 68 197 65 10 -6 9 -251 -2 -257 -5 -3 -44 -11 -87 -18
-56 -9 -70 -14 -46 -16 23 -2 32 -8 32 -21 0 -14 -12 -21 -52 -28 l-53 -10 58
-2 c61 -1 68 -8 39 -34 -13 -12 -36 -17 -75 -17 -62 0 -253 -41 -222 -48 10
-2 75 -2 142 0 l123 4 0 -33 c0 -18 -1 -33 -2 -34 -2 0 -46 -8 -98 -18 l-95
-19 128 -1 127 -1 0 -24 c0 -22 -5 -25 -62 -31 -90 -10 -107 -24 -30 -25 55 0
63 -2 60 -17 -2 -14 -18 -20 -68 -26 -36 -4 -83 -12 -105 -16 l-40 -9 46 -1
c93 -2 139 -13 139 -31 0 -19 0 -19 -175 -42 l-100 -13 115 -5 c112 -5 115 -6
118 -29 l4 -24 -134 7 c-75 3 -126 3 -118 -2 8 -5 72 -24 143 -42 72 -19 127
-38 127 -45 0 -6 10 -21 23 -33 24 -22 38 -28 35 -14 -1 4 4 27 11 51 7 24 10
59 6 78 -5 30 -9 33 -40 33 -19 0 -35 4 -35 9 0 18 30 32 62 29 27 -2 34 -8
36 -28 6 -47 10 -52 32 -30 11 11 20 29 20 40 0 18 7 20 74 20 93 0 101 -8
101 -105 0 -88 -11 -105 -69 -105 l-42 0 0 54 c1 44 -4 59 -23 80 l-24 25 -19
-36 c-23 -43 -14 -76 27 -95 30 -14 33 -28 4 -28 -11 0 -34 13 -50 29 l-29 29
-14 -29 -14 -29 43 0 c27 0 45 -5 48 -14 4 -9 29 -15 79 -18 59 -4 118 -21
313 -90 132 -47 268 -98 303 -112 117 -50 370 -86 604 -86 109 0 124 3 220 36
57 20 154 60 216 90 95 45 112 56 112 76 0 31 -8 40 -52 60 l-37 17 -138 -53
c-249 -97 -260 -99 -462 -94 -97 3 -184 9 -194 13 -21 9 -20 62 1 57 174 -36
321 -24 555 43 87 25 175 52 194 60 l35 15 -3 83 c-3 68 -10 95 -35 148 -29
59 -69 177 -76 224 -7 42 -155 104 -273 113 l-80 7 -6 78 c-7 83 -29 122 -71
129 -13 2 -25 17 -33 41 -7 21 -21 48 -32 59 -21 23 -85 58 -107 58 -8 0 -21
12 -28 27 -8 16 -26 31 -43 36 -17 5 -45 16 -64 24 -18 7 -68 18 -110 24 -42
6 -105 14 -141 19 -63 9 -200 11 -270 3z m418 -57 c40 -7 78 -18 85 -25 8 -8
-54 -11 -247 -11 l-258 0 -78 -47 c-44 -26 -77 -49 -75 -51 2 -3 45 12 95 32
l90 36 240 0 c153 0 240 -4 240 -10 0 -5 25 -10 55 -10 96 0 183 -51 217 -126
10 -24 25 -44 33 -44 31 0 55 -50 55 -116 l0 -64 -140 0 -140 0 -1 28 c-3 91
-1 125 10 131 6 4 41 6 78 4 79 -3 108 -24 126 -90 12 -45 31 -61 22 -18 -3
14 -8 37 -11 53 -3 15 -15 48 -26 75 l-20 47 -346 0 c-320 0 -350 -2 -414 -21
-39 -11 -68 -22 -66 -25 3 -2 27 3 54 11 69 21 108 19 139 -7 34 -30 44 -79
45 -205 l0 -103 54 0 55 0 3 42 c2 31 8 44 21 46 15 3 17 -8 17 -123 0 -97 3
-126 13 -123 8 3 14 40 17 119 l5 114 335 0 335 0 68 -29 c37 -15 67 -32 67
-37 0 -5 -24 -9 -53 -9 -49 0 -161 -30 -179 -48 -4 -4 -1 -32 7 -62 16 -57 45
-222 45 -252 0 -28 -26 -21 -85 20 -51 34 -54 40 -55 78 0 43 -13 120 -30 184
-9 33 -17 40 -63 59 -59 24 -149 46 -222 56 -66 9 -56 1 25 -20 96 -25 220
-76 230 -95 11 -21 35 -189 27 -196 -3 -3 -15 -1 -26 6 -18 9 -21 21 -22 73
-2 103 -5 108 -94 144 -44 18 -86 33 -94 33 -8 0 17 -22 56 -50 40 -28 73 -59
77 -72 7 -28 8 -88 1 -88 -3 0 -40 10 -82 22 -58 16 -107 22 -190 22 -100 1
-114 -1 -142 -21 -29 -22 -38 -23 -241 -23 -115 0 -210 4 -210 8 0 15 101 43
173 49 47 4 67 10 67 19 0 11 -35 14 -180 14 l-179 0 -16 52 c-40 137 -52 265
-47 504 l2 122 41 4 c22 2 42 1 44 -2 2 -3 -3 -32 -11 -65 -19 -84 -19 -215 1
-215 12 0 15 14 15 70 0 74 28 168 60 200 12 12 48 22 106 30 49 6 96 13 104
15 31 8 318 -6 388 -19z m833 -613 c5 -15 15 -50 20 -78 6 -27 20 -69 31 -92
31 -66 25 -73 -72 -94 -47 -9 -111 -27 -143 -38 -42 -15 -59 -17 -61 -8 -6 19
-48 238 -53 273 -5 31 -4 31 54 42 32 6 67 13 78 16 11 2 46 4 78 5 54 1 58
-1 68 -26z m-795 -199 c50 -33 88 -77 119 -136 32 -61 32 -68 -8 -68 -30 0
-36 5 -52 40 -10 23 -34 55 -53 72 -32 28 -40 30 -90 26 -37 -3 -59 -11 -68
-22 -18 -25 -27 -105 -19 -170 5 -38 4 -56 -4 -56 -6 0 -77 16 -158 35 -81 19
-159 37 -172 40 -56 14 -6 13 104 0 189 -24 172 -30 177 73 4 100 19 136 67
169 47 32 107 31 157 -3z m242 -10 c131 -44 242 -123 242 -173 0 -46 -8 -49
-144 -52 l-128 -4 -39 125 c-21 69 -39 126 -39 128 0 8 41 -1 108 -24z m-1180
-41 c-2 -5 -10 -21 -18 -36 -11 -23 -11 -35 -2 -60 14 -37 7 -48 -13 -21 -19
26 -19 83 2 106 16 18 38 25 31 11z m537 -44 c5 -5 -3 -9 -20 -9 -64 0 -55
-17 17 -30 104 -19 67 -24 -70 -11 -166 17 -172 18 -172 46 l0 23 118 -5 c64
-3 121 -9 127 -14z m364 2 c50 -26 97 -81 110 -128 14 -49 14 -162 0 -201 -13
-38 -57 -59 -88 -42 -25 13 -19 30 10 30 27 0 39 37 39 119 0 76 -32 155 -72
180 -22 13 -23 13 -5 -6 16 -19 16 -21 -2 -37 -62 -56 -45 -159 33 -203 24
-13 12 -33 -19 -33 -51 0 -115 84 -115 149 0 43 22 93 55 123 17 16 23 28 16
32 -11 7 -16 36 -6 36 3 0 23 -9 44 -19z m899 -58 l-3 -38 -154 -43 c-163 -45
-171 -45 -171 6 0 27 10 31 175 77 157 44 157 44 153 -2z m-388 -112 c0 -15
-17 -22 -73 -31 -29 -4 -67 -14 -84 -21 -25 -10 -40 -11 -65 -2 -18 6 -54 14
-80 18 -34 4 -46 10 -42 20 3 8 15 16 27 18 46 9 317 7 317 -2z"/>
        <path d="M950 2916 c0 -80 3 -147 8 -149 4 -3 23 -7 42 -9 l35 -3 3 64 c4 77
-14 201 -31 217 -7 7 -22 15 -34 19 l-23 6 0 -145z"/>
        <path d="M725 2955 c-22 -8 -41 -15 -42 -15 -2 0 -3 -13 -3 -29 0 -16 -5 -42
-10 -56 -18 -47 1 -65 69 -65 l59 0 7 -38 c3 -20 11 -44 16 -52 9 -12 10 -12
5 3 -3 10 -6 45 -6 78 0 52 -2 59 -20 59 -18 0 -20 7 -20 65 0 36 -3 65 -7 65
-5 -1 -26 -7 -48 -15z"/>
        <path d="M2013 2670 c-99 -15 -106 -18 -99 -48 3 -15 14 -64 22 -110 14 -67
20 -82 33 -78 9 3 49 12 90 21 41 9 77 18 80 21 3 2 -1 19 -8 37 -7 18 -17 54
-23 82 -10 53 -24 86 -36 84 -4 -1 -31 -5 -59 -9z"/>
        <path d="M1534 2434 c3 -10 14 -44 23 -74 l18 -55 50 -3 c70 -5 135 6 135 23
0 31 -122 106 -199 121 -30 6 -33 5 -27 -12z"/>
        <path d="M3870 3271 c-162 -32 -376 -73 -474 -92 -121 -22 -190 -40 -210 -54
-29 -19 -31 -26 -38 -100 -6 -77 -30 -167 -50 -192 -10 -13 -137 -37 -283 -53
-172 -20 -199 -46 -208 -200 -4 -52 -13 -121 -22 -153 -21 -79 -19 -139 6
-192 27 -57 35 -63 89 -67 40 -3 45 -6 50 -33 10 -46 28 -73 60 -90 25 -13
184 -15 1285 -15 1224 0 1255 0 1255 19 0 12 -10 21 -26 25 l-27 7 27 28 c24
25 26 33 26 118 l0 92 -42 5 c-52 7 -1002 76 -1040 76 -24 0 -28 4 -28 30 l0
30 68 -5 c149 -12 777 -45 840 -44 42 1 -35 12 -208 30 -151 16 -369 39 -485
51 l-210 23 -3 48 c-2 26 -1 47 1 47 2 0 122 -16 267 -35 256 -34 341 -41 203
-15 -37 7 -158 32 -268 55 l-200 42 -3 37 c-6 66 -13 65 199 40 107 -13 205
-23 219 -23 21 1 -250 59 -382 83 l-38 7 0 54 c0 30 4 55 9 55 5 0 127 -24
272 -54 253 -52 332 -64 218 -32 -30 8 -151 40 -269 71 -118 31 -219 60 -223
64 -4 5 -7 33 -5 63 l3 55 215 -59 c118 -32 287 -79 374 -103 88 -25 161 -43
163 -41 3 2 -127 48 -289 101 -161 53 -332 110 -380 127 l-88 31 0 53 c0 30 2
54 4 54 2 0 242 -79 532 -174 291 -96 530 -174 531 -172 2 1 -104 46 -234 99
-131 53 -371 150 -533 217 -171 70 -307 120 -325 119 -16 -1 -163 -27 -325
-58z m140 -96 c62 -32 65 -47 68 -397 3 -302 2 -318 -15 -318 -10 0 -67 7
-128 15 -60 8 -136 15 -167 15 l-57 0 0 -172 0 -173 -34 -3 -35 -3 -4 143 c-4
152 -12 181 -60 224 -86 79 -232 30 -257 -85 -5 -25 -13 -83 -17 -129 l-7 -82
-336 2 -336 3 -14 52 c-8 30 -11 66 -7 87 l7 36 175 0 c151 0 180 3 212 19 32
16 53 18 154 13 115 -5 148 2 148 29 0 5 -74 9 -164 9 -91 0 -167 4 -170 9
-10 16 38 74 94 112 71 49 161 86 258 104 l77 15 -75 -5 c-93 -7 -185 -36
-252 -81 -28 -19 -55 -37 -61 -41 -14 -9 3 76 23 117 33 65 57 78 180 100 63
12 117 24 120 27 3 3 -43 3 -101 -1 l-106 -7 18 53 c9 29 23 91 29 138 13 86
27 116 65 130 23 9 330 48 415 53 172 10 332 7 360 -8z m-1027 -509 c-1 -67
-6 -103 -19 -127 -9 -19 -23 -52 -29 -74 l-12 -40 -153 -3 -152 -3 6 48 c3 27
8 88 12 138 6 79 10 92 34 116 22 22 39 28 96 34 38 4 98 10 134 14 36 4 70 3
75 -1 6 -5 9 -51 8 -102z m576 -307 c92 -91 42 -269 -75 -269 -58 0 -114 76
-114 153 1 42 32 110 61 131 39 27 93 21 128 -15z m575 14 c81 -6 94 -14 111
-70 6 -23 6 -23 -114 -23 l-121 0 0 28 c0 15 -3 37 -6 50 -7 25 0 26 130 15z
m-148 -69 c6 -32 1 -110 -8 -119 -2 -2 -57 -5 -123 -6 l-120 -3 -3 82 -3 82
125 0 125 0 7 -36z m1289 -20 c22 -9 45 -56 45 -93 0 -38 -44 -91 -75 -91 -33
0 -75 53 -75 95 0 21 9 45 26 64 25 30 47 37 79 25z m-1025 -42 c0 -10 -7 -28
-16 -40 -14 -20 -23 -22 -120 -22 l-104 0 2 40 3 40 118 0 c105 0 117 -2 117
-18z"/>
        <path d="M3505 3119 c-256 -26 -295 -41 -295 -111 0 -18 -11 -64 -24 -103 -14
-38 -23 -71 -21 -73 2 -2 100 4 219 12 119 9 220 16 225 16 5 0 15 17 21 38 7
20 28 74 47 120 19 45 32 89 29 97 -6 17 -65 18 -201 4z"/>
        <path d="M3773 3113 c-17 -3 -27 -21 -48 -84 -15 -44 -28 -101 -28 -127 l-2
-47 60 0 59 0 28 120 c15 66 27 126 28 133 0 12 -48 15 -97 5z"/>
        <path d="M3905 3109 c-2 -8 -14 -59 -25 -114 -12 -55 -24 -108 -26 -117 -5
-15 2 -18 44 -18 47 0 51 2 62 33 15 40 24 188 13 204 -13 19 -62 27 -68 12z"/>
        <path d="M3164 2602 c-57 -23 -126 -69 -147 -98 l-18 -24 95 0 c92 0 96 1 113
26 18 29 23 88 8 103 -6 6 -26 3 -51 -7z"/>
        <path d="M2640 2305 l0 -25 103 0 c102 0 127 7 127 37 0 10 -27 13 -115 13
l-115 0 0 -25z"/>
        <path d="M2811 2729 c-121 -11 -141 -23 -141 -88 0 -27 -3 -56 -6 -65 -5 -14
10 -16 135 -16 l141 0 6 27 c4 15 8 55 8 88 1 70 8 68 -143 54z"/>
        <path d="M2660 2516 c0 -7 -3 -28 -6 -45 l-6 -31 129 0 130 0 10 45 10 45
-133 0 c-107 0 -134 -3 -134 -14z"/>
        <path d="M3470 2281 c-23 -44 -4 -101 34 -101 13 0 29 6 35 14 16 20 17 72 1
91 -18 21 -57 19 -70 -4z"/>
        <path d="M5237 2223 c-13 -13 -7 -54 9 -60 24 -9 46 24 33 48 -10 19 -30 25
-42 12z"/>
        <path d="M4678 2703 c6 -2 18 -2 25 0 6 3 1 5 -13 5 -14 0 -19 -2 -12 -5z"/>
        <path d="M4788 2533 c7 -3 16 -2 19 1 4 3 -2 6 -13 5 -11 0 -14 -3 -6 -6z"/>
        <path d="M4580 1789 c-43 -10 -699 -149 -706 -149 -2 0 -4 -63 -4 -140 0 -120
2 -139 15 -134 12 5 15 28 15 120 0 63 3 114 6 114 4 0 152 25 329 55 178 30
327 55 332 55 6 0 13 -174 17 -437 4 -241 9 -439 10 -440 3 -3 669 -63 698
-63 17 0 18 17 18 263 l-1 262 -335 248 c-185 137 -341 250 -347 252 -7 1 -28
-1 -47 -6z m195 -172 c61 -38 201 -126 312 -196 l202 -126 1 -252 c0 -235 -1
-253 -17 -252 -10 0 -155 17 -323 38 l-305 37 -3 418 c-2 334 0 416 10 410 7
-4 63 -39 123 -77z"/>
        <path d="M4682 1558 c3 -30 9 -34 123 -86 66 -30 172 -79 235 -108 63 -30 108
-49 100 -41 -17 16 -445 267 -455 267 -4 0 -5 -14 -3 -32z"/>
        <path d="M4680 1441 c0 -15 17 -26 73 -47 39 -15 102 -40 140 -55 37 -15 67
-26 67 -23 0 2 -63 35 -140 74 -120 60 -140 67 -140 51z"/>
        <path d="M4680 1331 c0 -11 4 -23 10 -26 11 -7 348 -105 358 -105 6 1 -358
150 -365 150 -2 0 -3 -9 -3 -19z"/>
        <path d="M4685 1089 c-3 -4 2 -12 12 -17 26 -13 144 -44 149 -40 2 3 -32 18
-76 35 -44 17 -83 27 -85 22z"/>
        <path d="M4680 1015 c0 -27 -17 -21 219 -80 79 -20 145 -34 147 -32 3 2 -51
23 -118 47 -68 23 -151 53 -185 66 l-63 23 0 -24z"/>
        <path d="M4675 932 c-10 -10 -5 -43 8 -47 16 -6 422 -55 444 -54 10 0 -49 16
-132 35 -253 58 -315 71 -320 66z"/>
        <path d="M1572 1644 c-16 -11 -22 -25 -22 -53 l0 -38 -68 -5 c-37 -3 -88 -14
-112 -25 -38 -17 -58 -19 -129 -14 l-85 7 -185 -82 c-102 -44 -298 -129 -434
-189 -136 -59 -246 -109 -244 -111 2 -2 59 16 128 41 68 24 255 90 414 146
160 56 296 104 303 106 9 4 12 -10 12 -48 l0 -54 -242 -79 c-134 -44 -304 -99
-378 -122 -201 -64 -136 -53 145 25 463 129 473 131 479 114 9 -22 7 -51 -2
-57 -9 -5 -162 -47 -567 -156 -126 -34 -232 -65 -235 -68 -3 -3 6 -2 20 1 64
17 763 167 776 167 9 0 14 -11 14 -32 l0 -33 -363 -82 c-486 -111 -485 -111
-463 -112 16 -1 680 95 794 114 29 5 32 4 32 -19 0 -19 -6 -26 -27 -30 -16 -3
-167 -31 -338 -62 -395 -71 -503 -92 -487 -93 7 -1 174 17 370 38 196 22 387
43 425 47 l67 6 0 -30 c0 -17 -4 -34 -10 -37 -9 -5 -491 -66 -890 -112 -147
-17 -155 -19 -158 -40 -3 -21 1 -23 42 -23 45 0 46 -1 40 -25 -3 -14 -3 -45 0
-70 l7 -45 977 0 c676 0 1094 5 1357 15 209 8 409 15 445 16 l65 2 -60 7 c-33
4 -95 8 -137 9 -90 1 -108 20 -20 22 50 1 53 2 24 9 -18 4 -76 11 -128 15 -52
4 -94 9 -94 11 0 3 10 15 21 27 36 37 59 98 59 159 0 81 -37 157 -83 168 -20
5 -22 13 -25 87 -4 114 0 112 -203 115 l-164 3 -6 67 c-7 79 -38 134 -99 174
l-40 27 0 89 c0 86 -1 89 -26 98 -18 7 -34 7 -52 -2 -23 -11 -27 -21 -30 -61
-4 -55 10 -53 -192 -34 l-125 12 -3 45 c-4 65 -42 88 -90 54z m65 -16 c6 -8
13 -179 16 -424 6 -410 6 -412 -14 -407 -21 6 -21 -2 -2 -71 5 -17 1 -16 -26
7 -18 15 -37 27 -42 27 -15 0 -12 853 3 868 16 16 53 15 65 0z m91 -135 c41
-30 71 -88 74 -145 l3 -43 -67 -3 -68 -3 0 116 c0 126 -3 123 58 78z m262 -4
c65 -29 140 -90 178 -143 l33 -46 -93 -1 c-51 0 -127 -2 -168 -5 -84 -5 -95
-1 -105 38 l-7 27 128 3 128 3 -32 37 c-18 20 -55 51 -82 68 -72 46 -61 56 20
19z m-491 -20 c41 -15 51 -35 51 -108 0 -47 -4 -62 -17 -70 -17 -10 -17 -10 0
-11 15 0 17 -14 17 -145 l0 -145 -37 0 c-21 0 -80 -9 -132 -20 -52 -10 -98
-17 -103 -14 -13 8 -10 268 4 282 9 9 9 12 0 12 -16 0 -17 186 -1 196 47 28
166 41 218 23z m521 -208 c5 -11 10 -42 10 -70 l0 -51 -95 0 -95 0 0 70 0 70
85 0 c73 0 86 -3 95 -19z m178 7 c13 -13 15 -49 6 -97 l-7 -32 -76 3 -76 3 -5
63 c-3 35 -3 65 -1 68 10 10 148 3 159 -8z m-390 -10 c7 -7 12 -36 12 -65 l0
-53 -70 0 -70 0 0 65 0 65 58 0 c32 0 63 -5 70 -12z m22 -246 c0 -59 -4 -113
-10 -120 -5 -7 -3 -6 6 1 12 11 16 38 17 118 l2 104 217 3 216 2 6 -27 c3 -16
8 -54 12 -87 l7 -59 -34 8 c-19 4 -83 9 -144 10 -64 2 -95 0 -75 -4 19 -4 45
-13 57 -19 25 -14 73 -73 73 -90 0 -20 -48 -14 -59 7 -6 10 -24 24 -41 30 -64
22 -107 -24 -117 -125 l-6 -54 -138 0 -139 0 0 39 c0 70 1 71 111 71 59 0 99
4 99 10 0 6 -20 10 -45 10 -38 0 -45 3 -45 20 0 17 -7 20 -40 20 l-40 0 0 113
c0 63 3 117 7 120 3 4 28 7 55 7 l48 0 0 -108z m658 102 l92 -7 0 -68 0 -69
-92 -2 -93 -2 92 -3 92 -4 3 -52 3 -52 50 -3 c47 -3 70 -16 59 -34 -3 -4 -104
-8 -224 -8 l-219 0 -3 -72 -3 -73 -30 0 c-24 0 -29 4 -27 18 3 19 -11 97 -23
130 -5 12 -2 17 12 17 15 0 19 8 21 37 4 50 7 53 63 53 49 0 57 -8 50 -52 0
-5 2 -8 7 -8 4 0 6 26 3 58 -2 31 -6 90 -8 130 l-5 72 45 0 c24 0 85 -3 135
-6z m190 -216 c3 -15 -4 -18 -37 -18 -35 0 -41 3 -41 21 0 17 5 20 37 17 27
-2 39 -8 41 -20z m-1130 -60 c3 -32 0 -38 -20 -42 -40 -9 -233 -24 -240 -19
-5 2 -8 17 -8 33 0 32 -13 28 150 54 113 18 114 18 118 -26z m562 -13 c56 -29
78 -121 45 -185 -18 -35 -43 -50 -84 -50 -103 0 -126 193 -28 235 40 18 33 18
67 0z m-560 -101 c0 -40 -2 -44 -24 -44 -14 0 -27 4 -30 8 -3 5 -27 5 -53 1
-26 -4 -65 -8 -85 -8 -37 -1 -38 0 -38 33 l0 34 78 8 c42 4 82 7 89 6 6 -2 14
2 17 7 3 5 15 7 26 4 16 -4 20 -14 20 -49z m785 11 c0 -15 -8 -21 -32 -23 -27
-3 -33 0 -33 16 0 26 10 33 40 30 17 -2 25 -9 25 -23z m353 8 c2 -9 -8 -13
-32 -13 -34 0 -44 8 -29 24 11 11 56 2 61 -11z m-1493 -17 c24 -24 24 -24 27
-2 2 17 11 22 46 24 l42 3 0 -36 0 -37 -45 4 c-44 3 -45 3 -45 -28 0 -42 -34
-84 -68 -84 -29 0 -72 35 -72 59 -1 9 -7 2 -15 -16 -17 -40 -48 -58 -75 -43
-65 35 -46 145 23 138 22 -2 35 -10 42 -25 12 -28 25 -30 25 -4 0 29 39 71 66
71 14 0 36 -11 49 -24z m1194 -60 c21 -37 7 -46 -75 -46 -80 0 -91 10 -57 50
13 15 30 20 69 20 43 0 52 -3 63 -24z m-445 -8 c14 -52 16 -51 -136 -45 -79 4
-154 7 -168 7 -22 0 -23 1 -8 16 12 12 53 20 155 29 76 7 141 13 144 14 4 0 9
-9 13 -21z m-1543 -6 c40 -33 19 -122 -29 -122 -48 0 -70 82 -32 120 25 25 32
25 61 2z m-117 -18 c19 -18 21 -75 4 -92 -47 -47 -107 39 -61 90 20 22 37 23
57 2z m650 -1 c4 -9 1 -22 -6 -29 -14 -13 -232 -39 -248 -29 -14 9 -12 42 3
52 13 8 106 19 193 21 40 2 53 -2 58 -15z m1499 -64 c231 -1 193 -14 -72 -23
l-185 -7 19 21 c10 11 25 18 33 15 7 -3 100 -5 205 -6z"/>
        <path d="M1600 1230 c0 -285 3 -361 13 -358 9 4 12 84 12 358 0 274 -3 354
-12 357 -10 4 -13 -72 -13 -357z"/>
        <path d="M1420 1217 l-45 -12 -3 -87 -3 -88 35 0 c19 0 46 4 61 10 25 10 26
11 23 97 -2 47 -7 87 -13 89 -5 1 -30 -3 -55 -9z"/>
        <path d="M2065 1080 l-170 -6 178 -2 c117 -1 176 1 172 8 -3 6 -7 9 -8 8 -1
-1 -78 -5 -172 -8z"/>
        <path d="M1920 1040 c0 -6 58 -10 155 -10 97 0 155 4 155 10 0 6 -58 10 -155
10 -97 0 -155 -4 -155 -10z"/>
        <path d="M1980 1000 c0 -6 42 -10 106 -10 67 0 103 4 99 10 -3 6 -50 10 -106
10 -59 0 -99 -4 -99 -10z"/>
        <path d="M1750 750 c-11 -7 2 -10 43 -10 36 0 56 4 52 10 -8 13 -75 13 -95 0z"/>
        <path d="M2062 748 c-17 -17 -15 -63 3 -78 20 -17 54 -3 61 25 12 47 -33 84
-64 53z"/>
        <path d="M1142 688 c-21 -21 -7 -68 20 -68 17 0 29 40 18 60 -12 23 -21 25
-38 8z"/>
        <path d="M1004 656 c-8 -22 3 -49 19 -43 6 2 12 14 12 27 0 27 -22 39 -31 16z"/>
        <path d="M362 598 c2 -12 10 -23 18 -23 22 0 19 39 -3 43 -15 3 -18 -1 -15
-20z"/>
        <path d="M252 588 c2 -13 8 -23 13 -23 6 0 11 10 13 23 2 15 -2 22 -13 22 -11
0 -15 -7 -13 -22z"/>
        <path d="M4343 1373 l-63 -14 0 -49 c0 -30 -5 -50 -12 -52 -10 -4 -14 -61 -16
-230 l-3 -225 51 -26 c42 -22 66 -27 121 -27 l69 0 0 164 c0 155 1 164 20 169
19 5 20 14 20 136 l0 131 -25 6 c-14 3 -25 12 -25 20 0 18 -54 17 -137 -3z
m117 -158 c0 -131 -2 -155 -15 -155 -8 0 -15 -7 -15 -15 0 -11 -11 -15 -39
-15 -31 0 -40 -4 -44 -21 -4 -15 -12 -20 -29 -17 -19 2 -24 10 -26 41 l-3 37
60 0 c34 0 61 4 61 10 0 6 -18 10 -40 10 l-40 0 0 119 c0 124 3 131 47 131 8
0 21 7 29 15 9 8 24 15 35 15 18 0 19 -9 19 -155z"/>
        <path d="M4030 1349 c-251 -26 -307 -49 -340 -137 -35 -92 -57 -85 259 -81
l279 4 4 64 c2 38 9 66 16 69 7 2 12 23 12 48 l0 44 -72 -1 c-40 -1 -111 -6
-158 -10z"/>
        <path d="M3630 1280 c-16 -16 -20 -33 -20 -89 0 -61 2 -69 18 -65 11 3 23 26
35 65 10 36 29 71 44 85 l26 24 -42 0 c-28 0 -47 -6 -61 -20z m32 -54 c-19
-57 -34 -72 -40 -41 -8 36 9 86 31 94 12 5 23 7 25 6 2 -1 -6 -28 -16 -59z"/>
        <path d="M3509 1091 c-47 -10 -101 -27 -120 -37 l-34 -19 175 -5 c172 -5 175
-5 178 -27 2 -13 10 -23 18 -23 9 0 14 -11 14 -35 l0 -34 133 -3 c126 -3 132
-4 129 -23 -4 -28 -39 -55 -73 -55 -15 0 -31 -5 -34 -11 -5 -7 36 -9 136 -7
79 2 156 0 172 -5 l27 -7 0 155 0 155 -317 -1 c-266 0 -332 -3 -404 -18z"/>
        <path d="M3340 930 l0 -80 170 0 170 0 0 80 0 80 -170 0 -170 0 0 -80z"/>
        <path d="M3306 984 c-3 -9 -6 -27 -6 -42 0 -14 -7 -33 -15 -43 -15 -15 -13
-17 15 -21 l30 -5 0 64 c0 60 -11 81 -24 47z"/>
        <path d="M3700 895 l0 -65 -211 0 c-202 0 -211 1 -216 20 -7 28 -20 25 -38
-10 l-16 -30 293 0 c258 1 289 2 261 15 -39 17 -53 42 -53 94 0 23 -4 41 -10
41 -6 0 -10 -28 -10 -65z"/>
        <path d="M258 793 c6 -2 18 -2 25 0 6 3 1 5 -13 5 -14 0 -19 -2 -12 -5z"/>
        <path d="M4074 792 c-6 -4 -19 -31 -29 -61 -22 -68 -78 -130 -125 -140 -31 -6
-35 -11 -38 -41 -7 -82 80 -178 182 -201 79 -17 139 -5 187 38 89 81 94 270 8
353 -50 49 -149 77 -185 52z m131 -92 c43 -26 65 -75 65 -142 0 -62 -24 -109
-69 -133 -41 -21 -72 -19 -112 8 -53 35 -79 82 -79 139 0 63 23 102 75 128 51
25 79 25 120 0z"/>
        <path d="M4124 639 c-47 -23 -56 -87 -19 -124 39 -40 96 -32 121 16 34 66 -37
140 -102 108z"/>
        <path d="M4510 765 l0 -35 -72 0 -73 0 3 -110 3 -110 170 0 169 0 0 25 c0 23
3 25 50 25 30 0 52 5 57 13 4 8 21 13 36 13 27 -1 28 1 31 54 1 30 11 70 20
88 10 19 16 35 14 37 -4 4 -348 35 -385 35 -20 0 -23 -5 -23 -35z m350 -50 c0
-13 -23 -15 -150 -15 -127 0 -150 2 -150 15 0 13 23 15 150 15 127 0 150 -2
150 -15z m-212 -152 c3 -10 -26 -13 -122 -13 -116 0 -138 4 -119 24 13 12 236
2 241 -11z"/>
        <path d="M3220 765 l0 -25 284 0 284 0 4 25 5 25 -288 0 -289 0 0 -25z"/>
        <path d="M3827 783 c-15 -15 -7 -43 13 -43 26 0 25 -11 -2 -45 -39 -50 -66
-55 -323 -55 l-236 0 -20 35 c-26 43 -53 48 -43 8 4 -16 14 -38 22 -50 l14
-23 340 0 c211 0 347 4 358 10 24 13 65 82 78 133 l10 37 -102 0 c-57 0 -106
-3 -109 -7z"/>
        <path d="M4951 741 c-11 -7 -15 -32 -15 -93 -1 -106 7 -136 40 -144 38 -10 47
6 29 55 -17 50 -20 143 -5 172 9 16 7 19 -12 19 -13 0 -29 -4 -37 -9z"/>
        <path d="M5020 735 c-17 -20 -9 -187 9 -209 17 -21 75 -21 95 0 19 18 23 173
6 205 -13 24 -91 27 -110 4z m95 -38 c3 -12 5 -52 3 -87 -2 -50 -7 -66 -19
-68 -13 -2 -17 11 -22 79 -4 45 -4 86 -1 90 10 17 34 9 39 -14z"/>
        <path d="M3630 690 c0 -30 1 -30 53 -30 52 0 117 28 117 50 0 6 -34 10 -85 10
l-85 0 0 -30z"/>
        <path d="M3270 701 c0 -18 32 -41 56 -41 19 0 24 5 24 25 0 23 -4 25 -40 25
-22 0 -40 -4 -40 -9z"/>
        <path d="M3372 688 c3 -22 7 -23 116 -26 l112 -3 0 26 0 25 -116 0 c-114 0
-115 0 -112 -22z"/>
        <path d="M3260 583 c0 -5 14 -32 30 -60 41 -71 111 -113 190 -113 63 0 130 27
154 61 19 27 21 90 4 107 -13 13 -378 18 -378 5z"/>
        <path d="M3666 563 c7 -16 14 -34 14 -40 0 -9 23 -13 80 -13 l80 0 0 40 0 40
-94 0 -95 0 15 -27z"/>
    </g>
</svg>
