<svg aria-hidden="true" style="position: absolute; width: 0; height: 0; overflow: hidden;" version="1.1"
    xmlns="http://www.w3.org/2000/svg"
    xmlns:xlink="http://www.w3.org/1999/xlink">
    <defs>
        <symbol id="icon-Telegram" viewBox="0 0 32 32">
            <path fill="#00b7ff" style="fill: var(--color1, #00b7ff)" d="M16 0c-8.837 0-16 7.163-16 16s7.163 16 16 16c8.837 0 16-7.163 16-16s-7.163-16-16-16z"></path>
            <path fill="#fff" style="fill: var(--color2, #fff)" d="M23.785 9.204l-2.858 14.409c0 0-0.4 0.999-1.499 0.52l-6.595-5.056-2.398-1.159-4.037-1.359c0 0-0.62-0.22-0.679-0.699s0.699-0.739 0.699-0.739l16.047-6.295c0 0 1.319-0.58 1.319 0.38z"></path>
            <path fill="#d2e5f1" style="fill: var(--color3, #d2e5f1)" d="M12.327 23.45c0 0-0.193-0.018-0.432-0.777s-1.459-4.756-1.459-4.756l9.692-6.155c0 0 0.56-0.34 0.54 0 0 0 0.1 0.060-0.2 0.34s-7.614 6.854-7.614 6.854z"></path>
            <path fill="#b5cfe4" style="fill: var(--color4, #b5cfe4)" d="M15.363 21.014l-2.608 2.378c0 0-0.204 0.155-0.427 0.058l0.499-4.417z"></path>
        </symbol>
        <symbol id="icon-Whatsapp" viewBox="0 0 32 32">
            <path fill="#05c443" style="fill: var(--color5, #05c443)" d="M26.4 0h-20.8c-3.093 0-5.6 2.507-5.6 5.6v20.8c0 3.093 2.507 5.6 5.6 5.6h20.8c3.093 0 5.6-2.507 5.6-5.6v-20.8c0-3.093-2.507-5.6-5.6-5.6z"></path>
            <path fill="#fff" style="fill: var(--color2, #fff)" d="M13.71 10.69l1 2.715c0.024 0.061 0.032 0.127 0.024 0.192s-0.034 0.126-0.074 0.178c-0.215 0.311-0.463 0.598-0.74 0.855-0.081 0.063-0.134 0.155-0.149 0.257s0.010 0.205 0.069 0.288c0.615 0.825 2.21 2.825 4.285 3.54 0.080 0.026 0.166 0.026 0.246 0s0.15-0.077 0.199-0.146l0.83-1.105c0.057-0.075 0.138-0.127 0.229-0.148s0.187-0.009 0.271 0.033l2.6 1.3c0.090 0.043 0.161 0.118 0.198 0.211s0.038 0.196 0.002 0.289c-0.285 0.81-1.18 2.785-3.095 2.465-2.504-0.384-4.782-1.67-6.405-3.615-1.57-1.96-4.67-7 0.095-7.57 0.088-0.009 0.177 0.012 0.252 0.059s0.132 0.118 0.163 0.201z"></path>
            <path fill="#fff" style="fill: var(--color2, #fff)" d="M16.8 27.4c-2.092 0.003-4.149-0.536-5.97-1.565l-6 1.54 2.205-4.955c-1.333-1.875-2.045-4.12-2.035-6.42 0-6.285 5.295-11.4 11.8-11.4s11.8 5.115 11.8 11.4c0 6.285-5.295 11.4-11.8 11.4zM11.145 23.685l0.365 0.225c1.59 0.981 3.422 1.501 5.29 1.5 5.405 0 9.8-4.215 9.8-9.4s-4.395-9.41-9.8-9.41c-5.405 0-9.8 4.215-9.8 9.4 0.002 2.062 0.708 4.063 2 5.67l0.375 0.475-1.805 3.060 3.575-1.52z"></path>
        </symbol>
        <symbol id="icon-Viber" viewBox="0 0 32 32">
            <path fill="#7d3daf" style="fill: var(--color6, #7d3daf)" d="M26.88 0h-21.76c-2.828 0-5.12 2.292-5.12 5.12v21.76c0 2.828 2.292 5.12 5.12 5.12h21.76c2.828 0 5.12-2.292 5.12-5.12v-21.76c0-2.828-2.292-5.12-5.12-5.12z"></path>
            <path fill="#fff" style="fill: var(--color2, #fff)" d="M26.12 10.315l-0.006-0.025c-0.511-2.066-2.816-4.284-4.932-4.745l-0.024-0.005c-3.423-0.653-6.894-0.653-10.316 0l-0.025 0.005c-2.116 0.461-4.42 2.679-4.932 4.745l-0.006 0.025c-0.632 2.886-0.632 5.813 0 8.698l0.006 0.025c0.49 1.978 2.623 4.094 4.66 4.676v2.307c0 0.835 1.017 1.245 1.596 0.642l2.337-2.429c0.507 0.028 1.014 0.044 1.521 0.044 1.723 0 3.447-0.163 5.158-0.489l0.024-0.005c2.116-0.461 4.421-2.679 4.932-4.745l0.006-0.025c0.632-2.886 0.632-5.813 0-8.698zM24.271 18.595c-0.341 1.348-2.091 3.024-3.481 3.334-1.82 0.346-3.655 0.494-5.487 0.443-0.036-0.001-0.071 0.013-0.097 0.039-0.26 0.267-1.706 1.752-1.706 1.752l-1.815 1.863c-0.133 0.138-0.366 0.044-0.366-0.147v-3.821c0-0.063-0.045-0.117-0.107-0.129-0-0-0.001-0-0.001-0-1.39-0.31-3.139-1.986-3.481-3.334-0.569-2.608-0.569-5.253 0-7.861 0.342-1.348 2.091-3.024 3.481-3.334 3.179-0.605 6.402-0.605 9.58 0 1.391 0.31 3.14 1.986 3.481 3.334 0.569 2.609 0.569 5.253 0 7.861z"></path>
            <path fill="#fff" style="fill: var(--color2, #fff)" d="M19.024 20.359c-0.214-0.065-0.418-0.109-0.607-0.187-1.96-0.813-3.764-1.863-5.193-3.471-0.813-0.915-1.449-1.947-1.986-3.040-0.255-0.518-0.47-1.057-0.689-1.592-0.2-0.488 0.094-0.992 0.404-1.359 0.291-0.345 0.665-0.609 1.070-0.804 0.316-0.152 0.628-0.064 0.859 0.204 0.499 0.579 0.958 1.188 1.329 1.86 0.228 0.413 0.166 0.918-0.248 1.199-0.101 0.068-0.192 0.148-0.286 0.226-0.082 0.068-0.159 0.136-0.216 0.227-0.103 0.168-0.108 0.365-0.042 0.547 0.51 1.402 1.37 2.492 2.781 3.080 0.226 0.094 0.453 0.203 0.713 0.173 0.436-0.051 0.577-0.529 0.882-0.779 0.299-0.244 0.68-0.247 1.001-0.044s0.633 0.422 0.943 0.643c0.304 0.217 0.607 0.429 0.887 0.676 0.27 0.238 0.363 0.549 0.211 0.872-0.278 0.59-0.683 1.082-1.266 1.395-0.165 0.088-0.362 0.117-0.547 0.174 0.186-0.057-0.214-0.065 0 0z"></path>
            <path fill="#fff" style="fill: var(--color2, #fff)" d="M16.005 9.231c2.564 0.072 4.67 1.773 5.121 4.308 0.077 0.432 0.104 0.873 0.139 1.312 0.014 0.184-0.090 0.36-0.289 0.362-0.206 0.002-0.298-0.169-0.311-0.354-0.026-0.365-0.045-0.731-0.095-1.093-0.265-1.91-1.788-3.49-3.689-3.829-0.286-0.051-0.579-0.064-0.869-0.095-0.183-0.019-0.423-0.030-0.464-0.258-0.034-0.191 0.127-0.343 0.309-0.353 0.049-0.003 0.099-0.001 0.149-0-0.050-0 2.564 0.072 0 0z"></path>
            <path fill="#fff" style="fill: var(--color2, #fff)" d="M19.902 14.283c-0.004 0.032-0.006 0.107-0.025 0.178-0.068 0.257-0.458 0.29-0.548 0.030-0.027-0.077-0.031-0.165-0.031-0.248-0.001-0.543-0.119-1.085-0.393-1.558-0.282-0.486-0.712-0.894-1.216-1.141-0.305-0.149-0.635-0.242-0.969-0.297-0.146-0.024-0.294-0.039-0.441-0.059-0.178-0.025-0.273-0.138-0.264-0.313 0.008-0.164 0.128-0.282 0.307-0.272 0.588 0.033 1.157 0.161 1.68 0.438 1.064 0.563 1.671 1.453 1.849 2.64 0.008 0.054 0.021 0.107 0.025 0.161 0.010 0.133 0.016 0.267 0.027 0.443-0.010-0.176-0.004 0.032 0 0z"></path>
            <path fill="#fff" style="fill: var(--color2, #fff)" d="M18.307 14.22c-0.215 0.004-0.329-0.115-0.351-0.312-0.015-0.137-0.028-0.276-0.060-0.409-0.064-0.263-0.204-0.506-0.425-0.667-0.104-0.076-0.223-0.131-0.346-0.167-0.157-0.045-0.321-0.033-0.478-0.071-0.171-0.042-0.265-0.18-0.238-0.34 0.024-0.146 0.166-0.259 0.325-0.248 0.994 0.072 1.705 0.586 1.806 1.756 0.007 0.083 0.016 0.17-0.003 0.249-0.031 0.135-0.132 0.203-0.229 0.21 0.098-0.007-0.215 0.004 0 0z"></path>
        </symbol>
    </defs>
</svg>
